# Blender 4.1.1
# www.blender.org
o Cube
v 0.549954 0.249652 1.719861
v 0.549954 0.588816 -0.375313
v 1.000000 -0.507576 2.043993
v 1.000000 -0.507575 -0.699445
v -0.549954 0.249652 1.719861
v -0.549954 0.588816 -0.375313
v -1.000000 -0.507576 2.043993
v -1.000000 -0.507575 -0.699445
v 0.318957 -0.332164 3.406291
v -0.318957 -0.332164 3.406291
v 0.318957 -0.071434 3.406291
v -0.318957 -0.071434 3.406291
v -0.544839 1.000000 -0.365569
v -1.000000 -0.507575 -0.699445
v 0.544839 1.000000 -0.365569
v 1.000000 -0.507575 -0.699445
v -0.544839 1.000000 -0.365569
v -1.000000 -0.507575 -0.699445
v 0.544839 1.000000 -0.365569
v 1.000000 -0.507575 -0.699445
v -0.360303 0.469200 -2.717629
v -2.691030 -0.507575 -1.472637
v 0.360303 0.469200 -2.717630
v 2.691030 -0.507575 -1.472637
v 0.000000 1.000000 -0.365569
v 0.000000 1.000000 -2.717629
v -0.755041 1.000000 -1.541599
v 0.755041 1.000000 -1.541599
v 0.000000 1.000000 -1.541599
v -0.272419 1.000000 -0.365569
v -1.384875 1.978571 -3.687824
v -0.860142 1.000000 -2.129614
v 0.649940 1.000000 -0.953584
v 0.272419 1.000000 -0.365569
v 1.384876 1.978571 -3.687823
v -0.649940 1.000000 -0.953584
v 0.860142 1.000000 -2.129614
v 0.000000 1.000000 -2.129614
v 0.000000 1.000000 -0.953584
v -0.377521 1.223458 -1.610211
v 0.377521 1.223458 -1.610211
v 0.324970 0.845901 -1.159420
v -0.324970 0.845901 -1.159420
v -0.430071 1.601014 -2.061002
v 0.430071 1.601014 -2.061002
v 0.000000 1.181738 -0.308262
v 0.549954 0.419234 0.672274
v -0.549954 0.419234 0.672274
v 0.000000 0.369957 1.652809
v 0.000000 0.775847 0.672274
vn -0.7957 0.5656 0.2167
vn -0.0000 -1.0000 -0.0000
vn -0.8396 0.5362 0.0868
vn -0.0000 -0.0000 1.0000
vn 0.8996 0.4368 -0.0000
vn 0.5140 0.7926 0.3281
vn 0.8945 -0.0000 0.4472
vn -0.0000 0.9697 0.2441
vn -0.0000 -0.9918 0.1277
vn 0.5641 -0.0125 0.8256
vn -0.0000 0.3007 -0.9537
vn -0.0000 -0.0000 -1.0000
vn -0.9504 -0.0190 -0.3104
vn 0.9504 -0.0190 -0.3104
vn 0.7185 0.4539 0.5270
vn 0.6617 0.7161 -0.2221
vn 0.3331 0.7416 0.5823
vn 0.3065 0.7118 0.6319
vn 0.4285 0.9036 -0.0000
vn -0.0000 1.0000 -0.0000
vn -0.3129 0.9283 -0.2009
vn 0.3909 0.9178 -0.0699
vn -0.3399 0.9272 -0.1575
vn -0.7848 -0.6085 -0.1178
vn -0.4954 0.8641 0.0885
vn 0.7816 0.5200 0.3444
vn -0.8132 0.5819 -0.0000
vn -0.5094 0.8605 -0.0000
vn 0.7376 0.4728 0.4820
vn 0.7218 0.6395 0.2647
vn -0.7218 0.6395 0.2647
vn -0.5140 0.7926 0.3281
vn -0.8945 -0.0000 0.4472
vn -0.9295 0.3641 0.0589
vn -0.8996 0.4368 -0.0000
vn 0.9295 0.3641 0.0589
vn 0.8396 0.5362 0.0868
vn 0.1928 0.9686 0.1568
vn 0.7957 0.5656 0.2167
vn 0.1847 0.9605 0.2082
vn -0.1847 0.9605 0.2082
vn -0.5641 -0.0125 0.8256
vn -0.0972 -0.0224 0.9950
vn 0.0972 -0.0224 0.9950
vn 0.4109 -0.2789 -0.8679
vn -0.4109 -0.2789 -0.8679
vn -0.0000 -0.7868 -0.6173
vn -0.1753 0.9068 0.3833
vn -0.9531 0.2500 0.1704
vn -0.6550 -0.7465 0.1171
vn 0.9531 0.2500 0.1704
vn 0.1753 0.9068 0.3833
vn 0.6550 -0.7465 0.1171
vn 0.7848 -0.6085 -0.1178
vn 0.8132 0.5819 -0.0000
vn -0.4285 0.9036 -0.0000
vn -0.3909 0.9178 -0.0699
vn -0.3331 0.7416 0.5823
vn 0.3399 0.9272 -0.1575
vn -0.3065 0.7118 0.6319
vn 0.3129 0.9283 -0.2009
vn -0.7185 0.4539 0.5270
vn -0.7376 0.4728 0.4820
vn 0.5094 0.8605 -0.0000
vn -0.6617 0.7161 -0.2221
vn -0.7816 0.5200 0.3444
vn 0.4954 0.8641 0.0885
vn 0.5391 0.8314 0.1346
vn -0.5391 0.8314 0.1346
vn -0.1928 0.9686 0.1568
vt 0.292498 0.193131
vt 0.430904 -0.012921
vt 0.391102 0.258927
vt 0.688410 0.659575
vt 0.330182 0.795067
vt 0.690936 0.794565
vt 0.386340 0.423234
vt 0.706017 0.652393
vt 0.295373 0.677545
vt 0.706017 0.675830
vt 0.592644 0.424244
vt 0.703143 0.191416
vt 0.498230 0.258004
vt 0.499258 0.422762
vt 0.561882 -0.013468
vt 0.449247 0.599738
vt 0.327657 0.660077
vt 0.295373 0.654108
vt 0.388478 0.621054
vt 0.591789 0.590503
vt 0.612213 0.620120
vt 0.500285 0.587520
vt 0.330182 0.801930
vt 0.996670 0.839048
vt 0.690936 0.801428
vt 0.444411 0.620821
vt 0.304623 1.016629
vt 0.502810 1.015801
vt 0.700995 1.014974
vt 0.346551 0.818842
vt 0.656604 0.817547
vt 0.678800 0.916260
vt 0.601687 0.980801
vt 0.590425 0.905100
vt 0.413818 0.905838
vt 0.403501 0.981629
vt 0.434453 0.754256
vt 0.501577 0.818194
vt 0.424136 0.830047
vt 0.567900 0.753698
vt 0.579162 0.829399
vt 0.500961 0.719391
vt 0.556279 0.620353
vt 0.500345 0.620587
vt 0.634408 0.718833
vt 0.367514 0.719948
vt 0.325587 0.917735
vt 0.502193 0.916998
vt 0.391344 0.589493
vt 0.591546 0.256031
vt 0.564312 0.599578
vt 0.025872 0.840400
vt 1.054033 0.804299
vt -0.051023 0.808914
s 0
f 7/1/1 12/2/1 5/3/1
f 3/4/2 8/5/2 4/6/2
f 7/1/3 5/3/3 48/7/3
f 4/8/4 14/9/4 16/10/4
f 47/11/5 3/12/5 4/8/5
f 49/13/6 47/11/6 50/14/6
f 12/2/4 9/15/4 11/15/4
f 3/12/7 11/15/7 9/15/7
f 49/13/8 12/2/8 11/15/8
f 3/4/9 10/16/9 7/17/9
f 16/10/4 18/9/4 20/10/4
f 8/18/4 13/19/4 14/9/4
f 2/20/10 16/10/10 15/21/10
f 46/22/11 15/21/11 13/19/11
f 18/23/2 24/24/2 20/25/2
f 14/9/4 17/19/4 18/9/4
f 15/21/4 20/10/4 19/21/4
f 13/19/4 15/21/4 30/26/4
f 21/27/12 26/28/12 23/29/12
f 18/9/13 27/30/13 21/27/13
f 20/10/14 23/29/14 28/31/14
f 37/32/15 35/33/15 45/34/15
f 44/35/16 26/28/16 31/36/16
f 43/37/17 29/38/17 40/39/17
f 42/40/18 28/31/18 41/41/18
f 42/40/19 29/38/19 39/42/19
f 34/43/20 39/42/20 25/44/20
f 34/43/21 33/45/21 42/40/21
f 43/37/22 27/30/22 36/46/22
f 30/26/20 36/46/20 17/19/20
f 30/26/23 39/42/23 43/37/23
f 32/47/24 31/36/24 21/27/24
f 40/39/25 32/47/25 27/30/25
f 40/39/26 38/48/26 44/35/26
f 45/34/27 26/28/27 38/48/27
f 41/41/28 38/48/28 29/38/28
f 41/41/29 37/32/29 45/34/29
f 50/14/30 2/20/30 46/22/30
f 6/49/31 50/14/31 46/22/31
f 48/7/32 49/13/32 50/14/32
f 7/1/33 10/2/33 12/2/33
f 3/4/2 7/17/2 8/5/2
f 6/49/34 8/18/34 48/7/34
f 8/18/35 7/1/35 48/7/35
f 4/8/4 8/18/4 14/9/4
f 4/8/36 2/20/36 47/11/36
f 47/11/37 1/50/37 3/12/37
f 49/13/38 1/50/38 47/11/38
f 12/2/4 10/2/4 9/15/4
f 3/12/39 1/50/39 11/15/39
f 11/15/40 1/50/40 49/13/40
f 49/13/41 5/3/41 12/2/41
f 3/4/9 9/51/9 10/16/9
f 16/10/4 14/9/4 18/9/4
f 8/18/42 6/49/42 13/19/42
f 2/20/4 4/8/4 16/10/4
f 13/19/43 6/49/43 46/22/43
f 46/22/44 2/20/44 15/21/44
f 18/23/2 22/52/2 24/24/2
f 14/9/4 13/19/4 17/19/4
f 15/21/4 16/10/4 20/10/4
f 15/21/4 19/21/4 34/43/4
f 34/43/4 25/44/4 30/26/4
f 15/21/4 34/43/4 30/26/4
f 30/26/4 17/19/4 13/19/4
f 21/27/45 31/36/45 26/28/45
f 26/28/46 35/33/46 23/29/46
f 23/29/47 24/53/47 22/54/47
f 22/54/47 21/27/47 23/29/47
f 22/54/48 18/9/48 21/27/48
f 18/9/49 17/19/49 36/46/49
f 36/46/49 27/30/49 18/9/49
f 27/30/50 32/47/50 21/27/50
f 33/45/51 19/21/51 20/10/51
f 20/10/52 24/53/52 23/29/52
f 23/29/53 37/32/53 28/31/53
f 28/31/51 33/45/51 20/10/51
f 37/32/54 23/29/54 35/33/54
f 44/35/55 38/48/55 26/28/55
f 43/37/56 39/42/56 29/38/56
f 42/40/57 33/45/57 28/31/57
f 42/40/58 41/41/58 29/38/58
f 34/43/59 42/40/59 39/42/59
f 34/43/20 19/21/20 33/45/20
f 43/37/60 40/39/60 27/30/60
f 30/26/61 43/37/61 36/46/61
f 30/26/20 25/44/20 39/42/20
f 32/47/62 44/35/62 31/36/62
f 40/39/63 44/35/63 32/47/63
f 40/39/64 29/38/64 38/48/64
f 45/34/65 35/33/65 26/28/65
f 41/41/66 45/34/66 38/48/66
f 41/41/67 28/31/67 37/32/67
f 50/14/68 47/11/68 2/20/68
f 6/49/69 48/7/69 50/14/69
f 48/7/70 5/3/70 49/13/70
