# Blender 4.1.1
# www.blender.org
o cube
v 1.000000 1.000000 -1.000000
v 1.000000 -1.000000 -1.000000
v 1.000000 1.000000 1.000000
v 1.000000 -1.000000 1.000000
v -1.000000 1.000000 -1.000000
v -1.000000 -1.000000 -1.000000
v -1.000000 1.000000 1.000000
v -1.000000 -1.000000 1.000000
vn -0.0000 1.0000 -0.0000
vn -0.0000 -0.0000 1.0000
vn -1.0000 -0.0000 -0.0000
vn -0.0000 -1.0000 -0.0000
vn 1.0000 -0.0000 -0.0000
vn -0.0000 -0.0000 -1.0000
vt 0.500677 0.665845
vt 0.500677 0.998820
vt 0.251213 0.998820
vt 0.251213 0.665845
vt 0.251213 0.332870
vt 0.001750 0.665845
vt 0.001750 0.332870
vt 0.999604 0.332870
vt 0.999604 0.665845
vt 0.750141 0.665845
vt 0.750141 0.332870
vt 0.500677 -0.000105
vt 0.500677 0.332870
vt 0.251213 -0.000105
s 0
f 1/1/1 5/2/1 7/3/1 3/4/1
f 4/5/2 3/4/2 7/6/2 8/7/2
f 8/8/3 7/9/3 5/10/3 6/11/3
f 6/12/4 2/13/4 4/5/4 8/14/4
f 2/13/5 1/1/5 3/4/5 4/5/5
f 6/11/6 5/10/6 1/1/6 2/13/6
