solid Exported from Blender-4.1.1
facet normal 0.000000 0.500000 0.000000
outer loop
vertex 0.500000 0.500000 -0.500000
vertex -0.500000 0.500000 -0.500000
vertex -0.500000 0.500000 0.500000
endloop
endfacet
facet normal 0.000000 0.500000 0.000000
outer loop
vertex 0.500000 0.500000 -0.500000
vertex -0.500000 0.500000 0.500000
vertex 0.500000 0.500000 0.500000
endloop
endfacet
facet normal 0.000000 0.000000 0.500000
outer loop
vertex 0.500000 -0.500000 0.500000
vertex 0.500000 0.500000 0.500000
vertex -0.500000 0.500000 0.500000
endloop
endfacet
facet normal 0.000000 0.000000 0.500000
outer loop
vertex 0.500000 -0.500000 0.500000
vertex -0.500000 0.500000 0.500000
vertex -0.500000 -0.500000 0.500000
endloop
endfacet
facet normal -0.500000 0.000000 0.000000
outer loop
vertex -0.500000 -0.500000 0.500000
vertex -0.500000 0.500000 0.500000
vertex -0.500000 0.500000 -0.500000
endloop
endfacet
facet normal -0.500000 0.000000 0.000000
outer loop
vertex -0.500000 -0.500000 0.500000
vertex -0.500000 0.500000 -0.500000
vertex -0.500000 -0.500000 -0.500000
endloop
endfacet
facet normal 0.000000 -0.500000 0.000000
outer loop
vertex -0.500000 -0.500000 -0.500000
vertex 0.500000 -0.500000 -0.500000
vertex 0.500000 -0.500000 0.500000
endloop
endfacet
facet normal 0.000000 -0.500000 0.000000
outer loop
vertex -0.500000 -0.500000 -0.500000
vertex 0.500000 -0.500000 0.500000
vertex -0.500000 -0.500000 0.500000
endloop
endfacet
facet normal 0.500000 0.000000 0.000000
outer loop
vertex 0.500000 -0.500000 -0.500000
vertex 0.500000 0.500000 -0.500000
vertex 0.500000 0.500000 0.500000
endloop
endfacet
facet normal 0.500000 0.000000 0.000000
outer loop
vertex 0.500000 -0.500000 -0.500000
vertex 0.500000 0.500000 0.500000
vertex 0.500000 -0.500000 0.500000
endloop
endfacet
facet normal 0.000000 0.000000 -0.500000
outer loop
vertex -0.500000 -0.500000 -0.500000
vertex -0.500000 0.500000 -0.500000
vertex 0.500000 0.500000 -0.500000
endloop
endfacet
facet normal 0.000000 0.000000 -0.500000
outer loop
vertex -0.500000 -0.500000 -0.500000
vertex 0.500000 0.500000 -0.500000
vertex 0.500000 -0.500000 -0.500000
endloop
endfacet
endsolid Exported from Blender-4.1.1
