# Blender 4.4.3
# www.blender.org
o Cube
v -1.000000 -0.000000 1.000000
v -1.000000 2.000000 1.000000
v -1.000000 -0.000000 -1.000000
v -1.000000 2.000000 -1.000000
v 1.000000 -0.000000 1.000000
v 1.000000 -0.000000 -1.000000
v 1.000000 -0.000000 1.000000
vn -1.0000 -0.0000 -0.0000
vn 0.7071 0.7071 -0.0000
vn -0.0000 -0.0000 -1.0000
vn -0.0000 -0.0000 1.0000
vn -0.0000 -1.0000 -0.0000
vt 0.375000 0.000000
vt 0.625000 0.000000
vt 0.625000 0.250000
vt 0.375000 0.250000
vt 0.000000 0.000000
vt 0.375000 0.500000
vt 0.125000 0.500000
vt 0.375000 0.750000
vt 0.125000 0.750000
s 0
f 1/1/1 2/2/1 4/3/1 3/4/1
f 4/3/2 2/2/2 7/5/2 6/6/2
f 3/7/3 4/3/3 6/6/3
f 7/5/4 2/2/4 1/1/4
f 3/7/5 6/6/5 5/8/5 1/9/5
