# Blender 4.4.3
# www.blender.org
o Cube
v 1.000000 1.000000 -1.000000
v 1.000000 -1.000000 -1.000000
v 1.000000 1.000000 1.000000
v 1.000000 -1.000000 1.000000
v -1.000000 1.000000 -1.000000
v -1.000000 -1.000000 -1.000000
v -1.000000 1.000000 1.000000
v -1.000000 -1.000000 1.000000
vn -0.0000 1.0000 -0.0000
vn -0.0000 -0.0000 1.0000
vn -1.0000 -0.0000 -0.0000
vn -0.0000 -1.0000 -0.0000
vn 1.0000 -0.0000 -0.0000
vn -0.0000 -0.0000 -1.0000
vt 0.987859 0.979167
vt 0.012141 0.979167
vt 0.012141 0.020833
vt 0.987859 0.020833
s 0
f 1/1/1 5/2/1 7/3/1 3/4/1
f 4/4/2 3/4/2 7/3/2 8/3/2
f 8/3/3 7/3/3 5/2/3 6/2/3
f 6/2/4 2/1/4 4/4/4 8/3/4
f 2/1/5 1/1/5 3/4/5 4/4/5
f 6/2/6 5/2/6 1/1/6 2/1/6
